<svg width="146" height="48" viewBox="0 0 146 48" fill="none" xmlns="http://www.w3.org/2000/svg">
<g style="mix-blend-mode:luminosity" clip-path="url(#clip0_16343_2580)">
<path d="M50.7008 34.7744V20.2194H50.9934L62.9473 34.7744H66.7091V13.4001H62.5294V27.9185H62.2368L50.2828 13.4001H46.5211V34.7744H50.7008ZM78.5376 35.1044C84.0548 35.1044 87.4404 31.9514 87.4404 26.672C87.4404 21.4293 84.0548 18.2396 78.5376 18.2396C73.0622 18.2396 69.6348 21.4293 69.6348 26.672C69.6766 31.9514 73.0204 35.1044 78.5376 35.1044ZM78.5376 32.0247C75.6118 32.0247 73.9399 30.0816 73.9399 26.672C73.9399 23.2991 75.6118 21.3193 78.5376 21.3193C81.4634 21.3193 83.1353 23.2991 83.1353 26.672C83.1353 30.0816 81.4634 32.0247 78.5376 32.0247ZM91.2439 14.61V18.6796H88.3181V21.6126H91.2439V30.4483C91.2439 33.6012 92.9158 34.8478 97.1791 34.8478C97.9732 34.8478 98.7674 34.7744 99.3943 34.6645V31.8048C98.8928 31.8414 98.5584 31.8781 97.9732 31.8781C96.2177 31.8781 95.4236 31.1815 95.4236 29.5684V21.6126H99.3943V18.6796H95.4236V14.61H91.2439ZM101.902 34.7744H106.082V18.5696H101.902V34.7744ZM103.992 15.8932C105.371 15.8932 106.5 14.9033 106.5 13.6934C106.5 12.4469 105.371 11.457 103.992 11.457C102.613 11.457 101.484 12.4469 101.484 13.6934C101.484 14.9033 102.613 15.8932 103.992 15.8932ZM117.534 35.1044C123.051 35.1044 126.437 31.9514 126.437 26.672C126.437 21.4293 123.051 18.2396 117.534 18.2396C112.059 18.2396 108.631 21.4293 108.631 26.672C108.631 31.9514 111.975 35.1044 117.534 35.1044ZM117.534 32.0247C114.608 32.0247 112.937 30.0816 112.937 26.672C112.937 23.2991 114.608 21.3193 117.534 21.3193C120.418 21.3193 122.132 23.2991 122.132 26.672C122.09 30.0816 120.418 32.0247 117.534 32.0247ZM128.903 34.7744H133.083V25.3522C133.083 22.9691 134.671 21.4659 137.137 21.4659C139.687 21.4659 140.857 22.7124 140.857 25.1688V34.7744H145.037V24.2889C145.037 20.4027 142.78 18.2396 138.684 18.2396C135.925 18.2396 134.086 19.3395 133.208 21.1726H132.916V18.5696H128.861C128.903 18.5696 128.903 34.7744 128.903 34.7744Z" fill="black"/>
<path fill-rule="evenodd" clip-rule="evenodd" d="M6.4449 12.0321C7.66141 12.9019 8.10142 12.8332 10.3791 12.6959L31.8363 11.5514C32.3022 11.5514 31.9139 11.1394 31.7586 11.0936L28.1867 8.82758C27.5138 8.36979 26.582 7.82044 24.8478 7.95778L4.08954 9.30825C3.33893 9.37692 3.18363 9.72026 3.49422 9.97205L6.4449 12.0321ZM7.73906 16.4498V36.4094C7.73906 37.4852 8.33437 37.8743 9.70618 37.8056L33.2857 36.5925C34.6575 36.5238 34.8128 35.7913 34.8128 34.9215V15.0993C34.8128 14.2295 34.4246 13.7488 33.5963 13.8175L8.95557 15.0993C8.04966 15.168 7.73906 15.58 7.73906 16.4498ZM31.008 17.5256C31.1633 18.1207 31.008 18.7387 30.335 18.8074L29.1962 19.0134V33.7542C28.2126 34.212 27.3067 34.4866 26.5302 34.4866C25.3137 34.4866 25.0031 34.1433 24.0972 33.1362L16.6687 22.813V32.7928L19.0241 33.2506C19.0241 33.2506 19.0241 34.4638 17.1346 34.4638L11.9062 34.7384C11.7509 34.4638 11.9062 33.8 12.4239 33.6626L13.7957 33.3193V20.135L11.9062 19.9976C11.7509 19.4025 12.1392 18.5327 13.2004 18.464L18.817 18.1207L26.5561 28.5583V19.3338L24.589 19.1278C24.4337 18.3954 25.0549 17.846 25.8055 17.7773L31.008 17.5256ZM2.35537 7.4771L23.9678 6.08084C26.6079 5.87484 27.3067 6.01217 28.9632 7.08798L35.8482 11.3683C36.987 12.1008 37.3753 12.3068 37.3753 13.1079V36.6154C37.3753 38.0803 36.7799 38.9501 34.6575 39.0874L9.57677 40.4379C7.97201 40.5066 7.2214 40.3006 6.39314 39.3621L1.29416 33.5253C0.388247 32.4495 0 31.6484 0 30.7099V9.81182C0 8.59868 0.621195 7.61443 2.35537 7.4771Z" fill="black"/>
</g>
<defs>
<clipPath id="clip0_16343_2580">
<rect width="145.551" height="48" fill="white"/>
</clipPath>
</defs>
</svg>
